<svg width="84" height="196" viewBox="0 0 84 196" fill="none" xmlns="http://www.w3.org/2000/svg" xmlns:xlink="http://www.w3.org/1999/xlink">
<path d="M82.135,78.125C72.366,32.877 51.979,20.828 46.805,12.31C43.994,7.677 41.127,0.636 41.127,0.636C40.846,4.649 40.349,7.191 37.088,10.241C30.555,16.355 2.794,40.105 0.462,91.521C-1.712,139.459 34.017,169.024 38.765,172.078C42.392,173.951 46.835,172.114 48.959,170.397C66.178,157.982 89.734,124.881 82.114,78.125Z" fill="#10AA50"/>
<path d="M42.608,146.544C41.712,158.415 41.066,165.322 38.785,172.091C38.785,172.091 40.289,183.387 41.334,195.356L45.059,195.356C45.948,186.926 47.305,178.558 49.123,170.294C44.298,167.81 42.79,156.956 42.608,146.544Z" fill="#B8C4C2"/>
<path d="M49.119,170.303C44.243,167.939 42.833,156.867 42.616,146.544C43.818,129.524 44.165,112.449 43.657,95.391C43.402,86.441 43.784,12.483 41.559,1.656C42.459,3.774 44.634,8.751 46.808,12.305C52.003,20.827 72.373,32.876 82.134,78.129C89.741,124.764 66.325,157.808 49.119,170.303Z" fill="#12924F"/>
</svg>
