<svg width="264" height="330" viewBox="0 0 264 330" fill="none" xmlns="http://www.w3.org/2000/svg" xmlns:xlink="http://www.w3.org/1999/xlink">
<path d="M252.729,257.255C252.729,399.759 290.727,288.543 219.121,288.543C147.514,288.543 149.902,261.217 0.651,219.197C0.651,76.692 51.468,-0.771 123.074,-0.771C194.68,-0.771 252.729,114.751 252.729,257.255Z" transform="rotate(-8.836 131.726 164.544)" fill="#000000"/>
<path d="M252.729,257.255C252.729,399.759 290.727,288.543 219.121,288.543C147.514,288.543 149.902,261.217 0.651,219.197C0.651,76.692 51.468,-0.771 123.074,-0.771C194.68,-0.771 252.729,114.751 252.729,257.255Z" transform="rotate(-8.836 131.726 164.544)" fill="#000000"/>
<path d="M252.729,257.255C252.729,399.759 290.727,288.543 219.121,288.543C147.514,288.543 149.902,261.217 0.651,219.197C0.651,76.692 51.468,-0.771 123.074,-0.771C194.68,-0.771 252.729,114.751 252.729,257.255Z" transform="rotate(-8.836 131.726 164.544)" fill="#000000"/>
</svg>
