<svg width="260" height="428" viewBox="0 0 260 428" fill="none" xmlns="http://www.w3.org/2000/svg" xmlns:xlink="http://www.w3.org/1999/xlink">
<path d="M258.715,258.061C258.715,400.889 131.318,426.447 59.887,426.447C-11.544,426.447 0.04,400.889 0.04,258.061C0.04,115.232 57.946,-0.553 129.378,-0.553C200.809,-0.553 258.715,115.232 258.715,258.061Z" transform="rotate(98.311 129.03 212.946)" fill="#000000"/>
<path d="M258.715,258.061C258.715,400.889 131.318,426.447 59.887,426.447C-11.544,426.447 0.04,400.889 0.04,258.061C0.04,115.232 57.946,-0.553 129.378,-0.553C200.809,-0.553 258.715,115.232 258.715,258.061Z" transform="rotate(98.311 129.03 212.946)" fill="#000000"/>
<path d="M258.715,258.061C258.715,400.889 131.318,426.447 59.887,426.447C-11.544,426.447 0.04,400.889 0.04,258.061C0.04,115.232 57.946,-0.553 129.378,-0.553C200.809,-0.553 258.715,115.232 258.715,258.061Z" transform="rotate(98.311 129.03 212.946)" fill="#000000"/>
</svg>
