<svg width="140" height="200" viewBox="0 0 140 200" fill="none" xmlns="http://www.w3.org/2000/svg" xmlns:xlink="http://www.w3.org/1999/xlink">
<path d="M34.751,200C53.926,200 69.489,185.067 69.489,166.667L69.489,133.334L34.751,133.334C15.575,133.334 0.012,148.267 0.012,166.667C0.012,185.067 15.575,200 34.751,200Z" fill="#0ACF83"/>
<path d="M0.012,100C0.012,81.6 15.575,66.666 34.751,66.666L69.489,66.666L69.489,133.333L34.751,133.333C15.575,133.333 0.012,118.4 0.012,100Z" fill="#A259FF"/>
<path d="M0.008,33.333C0.008,14.933 15.571,0 34.747,0L69.485,0L69.485,66.667L34.747,66.667C15.571,66.667 0.008,51.733 0.008,33.333Z" fill="#F24E1E"/>
<path d="M69.492,0L104.23,0C123.406,0 138.969,14.933 138.969,33.333C138.969,51.733 123.406,66.667 104.23,66.667L69.492,66.667L69.492,0Z" fill="#FF7262"/>
<path d="M138.969,100C138.969,118.4 123.406,133.333 104.23,133.333C85.055,133.333 69.492,118.4 69.492,100C69.492,81.6 85.055,66.666 104.23,66.666C123.406,66.666 138.969,81.6 138.969,100Z" fill="#1ABCFE"/>
</svg>
