<svg width="194" height="200" viewBox="0 0 194 200" fill="none" xmlns="http://www.w3.org/2000/svg" xmlns:xlink="http://www.w3.org/1999/xlink">
<rect  x="0" y="0" width="192.484" height="200" fill="#F7DF1E"/>
<path d="M50.612,167.134L65.342,157.872C68.183,163.107 70.769,167.536 76.969,167.536C82.913,167.536 86.66,165.121 86.66,155.724L86.66,91.819L104.749,91.819L104.749,155.989C104.749,175.456 93.767,184.317 77.745,184.317C63.275,184.317 54.875,176.53 50.611,167.133Z" fill="#000000"/>
<path d="M114.574,165.121L129.302,156.26C133.179,162.839 138.218,167.672 147.133,167.672C154.628,167.672 159.407,163.778 159.407,158.408C159.407,151.964 154.498,149.681 146.228,145.924L141.707,143.908C128.657,138.137 120,130.887 120,115.582C120,101.485 130.336,90.745 146.487,90.745C157.987,90.745 166.256,94.907 172.199,105.782L158.115,115.179C155.014,109.406 151.656,107.124 146.488,107.124C141.19,107.124 137.831,110.615 137.831,115.179C137.831,120.817 141.19,123.1 148.942,126.591L153.464,128.605C168.839,135.452 177.497,142.432 177.497,158.139C177.497,175.056 164.705,184.319 147.521,184.319C130.724,184.319 119.871,175.996 114.574,165.121Z" fill="#000000"/>
</svg>
