<svg width="116" height="100" viewBox="0 0 116 100" fill="none" xmlns="http://www.w3.org/2000/svg" xmlns:xlink="http://www.w3.org/1999/xlink">
<path d="M29.042,0.55C26.565,4.404 23.079,10.872 23.354,11.147C23.537,11.33 36.29,11.56 51.657,11.605C77.161,11.697 79.593,11.743 79.73,12.431C79.822,12.89 78.996,14.587 77.987,16.284C76.932,18.028 75.877,19.862 75.648,20.367C75.372,20.917 74.914,21.835 74.547,22.431C74.226,23.073 74.042,23.761 74.134,23.945C74.501,24.541 100.464,24.358 100.464,23.761C100.464,23.486 99.868,22.248 99.088,21.009C98.308,19.817 97.712,18.624 97.712,18.395C97.712,18.211 97.115,17.156 96.336,16.147C95.602,15.092 94.959,14.083 94.959,13.945C94.959,13.761 94.088,12.156 92.987,10.367C91.886,8.578 90.877,6.789 90.693,6.422C90.51,6.055 89.959,5.092 89.455,4.358C88.95,3.578 88.308,2.477 88.079,1.835C87.804,1.239 87.299,0.55 87.024,0.367C86.703,0.183 73.629,0 57.941,0C35.602,0 29.317,0.138 29.042,0.55ZM14.868,25.367C14.501,25.596 13.996,26.193 13.721,26.743C13.492,27.294 13.125,28.073 12.849,28.44C11.565,30.413 8.262,36.147 8.262,36.422C8.262,36.606 7.895,37.294 7.391,37.982C6.932,38.67 5.372,41.284 3.904,43.807C2.437,46.33 1.06,48.44 0.831,48.532C0.189,48.807 0.418,50.183 1.473,51.835C3.4,54.862 3.629,55.275 4.088,56.284C4.914,58.119 6.886,61.009 7.299,61.009C7.528,61.009 8.216,60 8.859,58.807C11.106,54.541 16.519,45.138 17.941,43.028C18.446,42.339 18.813,41.651 18.813,41.514C18.813,41.376 20.372,38.67 22.253,35.505C24.134,32.339 25.693,29.633 25.693,29.45C25.693,29.312 26.244,28.394 26.886,27.431C27.574,26.468 27.987,25.505 27.804,25.321C27.299,24.862 15.693,24.908 14.868,25.367ZM45.51,25.229C43.446,25.459 43.446,25.459 41.244,29.817C40.693,30.963 39.547,32.89 38.767,34.174C37.941,35.413 36.611,37.706 35.785,39.22C34.959,40.734 34.042,42.294 33.767,42.661C33.492,43.028 32.849,44.083 32.345,44.954C30.739,47.844 29.409,50.183 28.446,51.835C26.794,54.633 25.602,56.697 20.281,65.963L15.051,75L15.877,76.606C16.336,77.477 17.574,79.633 18.629,81.422C19.638,83.165 20.648,85.092 20.831,85.642C21.015,86.239 21.336,86.697 21.519,86.697C21.703,86.697 22.299,87.569 22.895,88.624C23.446,89.725 24.317,91.193 24.822,91.972C25.281,92.706 25.969,93.945 26.336,94.725C26.703,95.459 27.62,96.972 28.4,98.073L29.822,100L86.748,100L87.528,98.624C87.941,97.89 88.446,97.248 88.675,97.248C88.859,97.248 88.996,97.018 88.996,96.743C88.996,96.468 89.684,95.046 90.556,93.624C91.381,92.202 92.666,90 93.354,88.761C94.042,87.477 96.015,84.083 97.712,81.193C108.17,63.349 107.987,63.716 107.299,63.257C106.932,63.028 106.06,62.936 105.326,63.073C104.593,63.211 101.886,63.303 99.317,63.303L94.592,63.303L91.748,68.211C90.189,70.963 87.161,76.101 85.051,79.679C82.941,83.257 81.198,86.376 81.198,86.651C81.198,88.028 79.088,88.165 57.666,88.119C45.785,88.073 36.06,88.028 36.015,87.936C34.822,86.422 28.904,75.734 28.904,75.183C28.904,74.725 29.822,72.798 30.969,70.963C32.115,69.083 33.033,67.385 33.033,67.248C33.033,67.064 33.537,66.239 34.18,65.413C34.822,64.587 35.326,63.761 35.326,63.578C35.326,63.394 36.381,61.514 37.62,59.358C38.904,57.202 39.914,55.413 39.914,55.321C39.914,55.138 45.143,46.193 47.024,43.211C47.712,42.156 48.767,40.321 49.363,39.128C50.005,37.936 51.565,35.275 52.804,33.165C54.042,31.055 55.051,29.22 55.051,29.037C55.051,28.899 55.602,28.073 56.244,27.202C56.886,26.33 57.299,25.505 57.161,25.321C56.794,24.954 48.308,24.908 45.51,25.229Z" fill="#000000"/>
<path d="M65.189,38.945C64.547,39.678 63.492,41.284 62.849,42.477C61.336,45.458 59.96,47.935 48.583,67.522C47.574,69.174 46.794,70.733 46.794,70.917C46.794,71.1 46.336,71.743 45.831,72.293C44.593,73.623 44.96,75 46.473,74.587C47.024,74.449 53.171,74.311 60.143,74.311L72.758,74.311L73.767,72.339C75.051,69.862 76.657,67.064 77.712,65.504C79.134,63.348 78.721,63.165 71.978,63.119C65.969,63.073 65.831,63.073 65.694,62.064C65.602,61.422 66.473,59.449 67.941,57.018C69.272,54.816 70.739,52.247 71.198,51.284L72.024,49.541L93.583,49.541C107.116,49.541 115.143,49.357 115.143,49.082C115.143,48.578 109.822,39.541 108.813,38.394C108.171,37.66 106.657,37.614 87.253,37.614L66.382,37.66L65.189,38.945Z" fill="#000000"/>
</svg>
