<svg width="212" height="200" viewBox="0 0 212 200" fill="none" xmlns="http://www.w3.org/2000/svg" xmlns:xlink="http://www.w3.org/1999/xlink">
<path d="M0,99.101C0,115.809 15.604,131.407 40.204,140.198C35.291,166.057 39.323,186.899 52.791,195.021C66.634,203.368 87.257,197.59 106.831,179.699C125.911,196.867 145.195,203.624 158.65,195.48C172.48,187.108 176.686,164.853 171.638,138.187C197.261,129.329 211.594,116.029 211.594,99.101C211.594,82.78 195.961,68.66 171.692,59.925C177.127,32.157 172.522,11.82 158.497,3.364C144.975,-4.789 125.468,2.317 106.107,19.935C85.965,1.235 66.65,-4.474 52.639,4.007C39.13,12.183 35.276,33.404 40.204,59.741C16.434,68.407 0,82.845 0,99.101Z" fill="#FFFFFF"/>
<path d="M166.55,68.599C164.6,67.898 162.58,67.234 160.5,66.606C160.842,65.147 161.156,63.707 161.435,62.292C166.014,39.051 163.02,20.328 152.797,14.163C142.994,8.252 126.961,14.415 110.77,29.149C109.213,30.566 107.651,32.066 106.091,33.638C105.051,32.598 104.012,31.593 102.977,30.631C86.008,14.877 68.998,8.238 58.785,14.42C48.991,20.348 46.091,37.95 50.213,59.976C50.611,62.103 51.076,64.276 51.602,66.485C49.195,67.199 46.871,67.961 44.647,68.771C24.753,76.024 12.047,87.39 12.047,99.18C12.047,111.357 25.686,123.571 46.408,130.976C48.044,131.561 49.74,132.113 51.489,132.638C50.922,135.027 50.428,137.368 50.013,139.652C46.083,161.295 49.152,178.481 58.92,184.372C69.009,190.455 85.941,184.202 102.429,169.133C103.732,167.941 105.04,166.678 106.35,165.354C108.048,167.064 109.744,168.682 111.43,170.2C127.401,184.57 143.174,190.372 152.932,184.465C163.011,178.364 166.287,159.903 162.034,137.441C161.71,135.726 161.332,133.973 160.907,132.189C162.096,131.822 163.264,131.442 164.402,131.048C185.944,123.585 199.96,111.52 199.96,99.18C199.96,87.348 186.845,75.905 166.55,68.599Z" fill="#53C1DE"/>
<path d="M161.877,123.081C160.85,123.437 159.795,123.78 158.721,124.114C156.343,116.241 153.133,107.87 149.205,99.222C152.954,90.779 156.039,82.515 158.351,74.694C160.273,75.275 162.139,75.889 163.937,76.536C181.326,82.796 191.933,92.05 191.933,99.181C191.933,106.776 180.478,116.637 161.877,123.081ZM154.159,139.072C156.04,149.004 156.308,157.984 155.063,165.004C153.944,171.312 151.693,175.517 148.91,177.202C142.988,180.786 130.324,176.127 116.666,163.838C115.1,162.429 113.523,160.925 111.941,159.333C117.236,153.278 122.528,146.238 127.692,138.421C136.777,137.578 145.359,136.2 153.142,134.319C153.526,135.936 153.866,137.521 154.159,139.072ZM76.111,176.582C70.325,178.719 65.717,178.78 62.931,177.1C57.004,173.526 54.54,159.727 57.901,141.218C58.286,139.098 58.744,136.92 59.272,134.695C66.97,136.474 75.49,137.755 84.596,138.527C89.795,146.177 95.24,153.208 100.727,159.365C99.528,160.575 98.334,161.727 97.147,162.813C89.856,169.476 82.55,174.204 76.111,176.582ZM49.005,123.034C39.842,119.76 32.275,115.504 27.088,110.86C22.427,106.686 20.074,102.543 20.074,99.181C20.074,92.026 30.276,82.9 47.29,76.698C49.354,75.945 51.515,75.236 53.758,74.57C56.109,82.567 59.194,90.929 62.917,99.385C59.146,107.966 56.017,116.461 53.643,124.553C52.044,124.072 50.495,123.567 49.005,123.034ZM58.091,58.364C54.559,39.493 56.905,25.257 62.807,21.685C69.093,17.88 82.995,23.305 97.647,36.908C98.583,37.778 99.523,38.688 100.466,39.629C95.007,45.759 89.612,52.738 84.458,60.343C75.621,61.199 67.161,62.575 59.383,64.417C58.894,62.361 58.461,60.34 58.091,58.364ZM139.148,79.292C137.289,75.934 135.38,72.655 133.434,69.466C139.43,70.258 145.174,71.31 150.569,72.598C148.949,78.025 146.931,83.7 144.554,89.517C142.85,86.133 141.047,82.721 139.148,79.292ZM106.093,45.628C109.796,49.822 113.504,54.506 117.151,59.587C113.476,59.405 109.755,59.311 106.004,59.311C102.288,59.311 98.594,59.403 94.942,59.581C98.593,54.547 102.333,49.871 106.093,45.628ZM72.827,79.35C70.969,82.718 69.2,86.111 67.522,89.51C65.184,83.714 63.184,78.013 61.551,72.509C66.912,71.254 72.63,70.229 78.587,69.451C76.614,72.67 74.689,75.973 72.827,79.35L72.827,79.35ZM78.759,129.509C72.604,128.791 66.8,127.818 61.44,126.598C63.1,120.996 65.144,115.174 67.531,109.252C69.213,112.649 70.99,116.043 72.858,119.418L72.859,119.418C74.762,122.857 76.734,126.225 78.759,129.509ZM106.315,153.325C102.511,149.033 98.716,144.285 95.009,139.178C98.607,139.325 102.276,139.401 106.004,139.401C109.834,139.401 113.62,139.31 117.347,139.137C113.688,144.336 109.993,149.092 106.315,153.325ZM144.631,108.95C147.143,114.936 149.26,120.727 150.941,126.234C145.493,127.534 139.61,128.581 133.412,129.359C135.363,126.126 137.288,122.791 139.181,119.361C141.095,115.89 142.912,112.414 144.631,108.95ZM132.227,115.167C129.29,120.493 126.274,125.577 123.212,130.375C117.636,130.792 111.875,131.007 106.004,131.007C100.156,131.007 94.468,130.817 88.99,130.445C85.805,125.584 82.724,120.485 79.805,115.213L79.806,115.213C76.895,109.956 74.216,104.654 71.788,99.382C74.215,94.098 76.887,88.79 79.782,83.543L79.781,83.544C82.683,78.282 85.737,73.208 88.893,68.376C94.481,67.935 100.212,67.704 106.003,67.704L106.004,67.704C111.821,67.704 117.559,67.937 123.146,68.382C126.254,73.178 129.287,78.236 132.201,83.498C135.147,88.82 137.854,94.092 140.301,99.263C137.861,104.523 135.16,109.848 132.227,115.167ZM148.787,21.435C155.08,25.23 157.527,40.532 153.573,60.598C153.321,61.879 153.037,63.183 152.728,64.505C144.932,62.624 136.467,61.224 127.603,60.355C122.44,52.666 117.089,45.677 111.718,39.626C113.162,38.173 114.604,36.788 116.04,35.481C129.913,22.857 142.879,17.873 148.787,21.435Z" fill="#FFFFFF"/>
<path d="M106.007,81.636C115.274,81.636 122.787,89.491 122.787,99.181C122.787,108.871 115.274,116.726 106.007,116.726C96.739,116.726 89.227,108.871 89.227,99.181C89.227,89.491 96.739,81.636 106.007,81.636Z" fill="#53C1DE"/>
</svg>
