<svg width="200" height="200" viewBox="0 0 200 200" fill="none" xmlns="http://www.w3.org/2000/svg" xmlns:xlink="http://www.w3.org/1999/xlink">
<path d="M0,100L0,0L100,0L200,0L200,100L200,200L100,200L0,200L0,100Z" fill="#007ACC"/>
<path d="M114.576,174.56L114.639,166.37L101.623,166.37L88.607,166.37L88.607,129.386L88.607,92.401L79.401,92.401L70.195,92.401L70.195,129.386L70.195,166.37L57.179,166.37L44.163,166.37L44.163,174.401C44.163,178.846 44.258,182.56 44.385,182.655C44.48,182.782 60.322,182.846 79.528,182.814L114.48,182.719L114.576,174.56Z" transform="rotate(-360 79.401 137.612)" fill="#FFFFFF"/>
<path d="M161.381,183.025C166.46,181.756 170.333,179.502 173.889,175.819C175.73,173.851 178.46,170.263 178.683,169.406C178.746,169.152 170.048,163.311 164.778,160.041C164.587,159.914 163.826,160.74 162.968,162.01C160.397,165.756 157.699,167.375 153.572,167.66C147.508,168.073 143.603,164.898 143.635,159.597C143.635,158.041 143.857,157.121 144.492,155.851C145.826,153.089 148.302,151.438 156.079,148.073C170.397,141.914 176.524,137.851 180.333,132.073C184.587,125.629 185.54,115.343 182.651,107.692C179.476,99.375 171.603,93.724 160.524,91.851C157.095,91.248 148.968,91.343 145.286,92.009C137.254,93.438 129.635,97.406 124.937,102.613C123.095,104.644 119.508,109.946 119.73,110.327C119.826,110.454 120.651,110.962 121.572,111.502C122.46,112.009 125.826,113.946 129,115.787L134.746,119.121L135.953,117.343C137.635,114.771 141.318,111.248 143.54,110.073C149.921,106.708 158.683,107.184 163,111.057C164.841,112.74 165.603,114.486 165.603,117.057C165.603,119.375 165.318,120.39 164.111,122.136C162.556,124.359 159.381,126.232 150.365,130.136C140.048,134.581 135.603,137.343 131.54,141.724C129.191,144.263 126.968,148.327 126.048,151.724C125.286,154.549 125.095,161.629 125.699,164.486C127.826,174.454 135.349,181.406 146.206,183.47C149.73,184.136 157.921,183.883 161.381,183.025Z" fill="#FFFFFF"/>
</svg>
