<svg width="170" height="200" viewBox="0 0 170 200" fill="none" xmlns="http://www.w3.org/2000/svg" xmlns:xlink="http://www.w3.org/1999/xlink">
<path d="M0.031,0L15.37,180L84.243,200L153.092,180.012L168.455,0L0.031,0Z" fill="#FF5722"/>
<path d="M135.191,58.863L84.243,58.863L54.468,58.863L56.393,81.476L84.243,81.476L133.266,81.476L127.48,149.276L84.243,161.813L84.207,161.826L40.994,149.276L37.975,113.813L59.148,113.813L60.724,132.213L84.219,138.851L84.243,138.838L107.762,132.201L110.216,103.563L84.243,103.563L37.109,103.563L31.406,36.801L84.243,36.801L137.068,36.801L135.191,58.863Z" fill="#FAFAFA"/>
</svg>
