<svg width="194" height="200" viewBox="0 0 194 200" fill="none" xmlns="http://www.w3.org/2000/svg" xmlns:xlink="http://www.w3.org/1999/xlink">
<path d="M192.484,166.667C192.484,185 178.048,200 160.403,200L32.081,200C14.436,200 0,185 0,166.667L0,33.333C0,15 14.436,0 32.081,0L160.403,0C178.048,0 192.484,15 192.484,33.333L192.484,166.667Z" fill="#563D7C"/>
<path d="M52.304,43.465L106.872,43.465C116.937,43.465 125.02,45.85 131.09,50.654C137.16,55.458 140.211,62.68 140.211,72.386C140.211,78.269 138.827,83.301 136.059,87.484C133.292,91.667 129.329,94.935 124.171,97.223L124.171,97.55C131.09,99.086 136.342,102.484 139.896,107.746C143.45,113.04 145.243,119.641 145.243,127.615C145.243,132.19 144.457,136.471 142.884,140.425C141.312,144.412 138.858,147.844 135.493,150.719C132.128,153.595 127.85,155.883 122.598,157.582C117.346,159.282 111.118,160.131 103.884,160.131L52.304,160.131L52.304,43.465ZM71.961,92.321L104.042,92.321C108.759,92.321 112.691,90.948 115.836,88.138C118.981,85.327 120.554,81.34 120.554,76.112C120.554,70.229 119.138,66.079 116.308,63.693C113.477,61.308 109.388,60.099 104.042,60.099L71.961,60.099L71.961,92.321ZM71.961,143.465L106.715,143.465C112.691,143.465 117.346,141.863 120.617,138.628C123.919,135.425 125.586,130.85 125.586,124.968C125.586,119.184 123.95,114.772 120.617,111.635C117.283,108.497 112.691,106.994 106.715,106.994L71.961,106.994L71.961,143.465Z" fill="#FFFFFF"/>
</svg>
