<svg width="76" height="72" viewBox="0 0 76 72" fill="none" xmlns="http://www.w3.org/2000/svg" xmlns:xlink="http://www.w3.org/1999/xlink">
<path d="M35.721,14.734C41.371,14.734 46.694,17.238 50.595,21.153L50.595,21.165C50.595,19.285 51.86,17.863 53.609,17.863L54.053,17.863C56.811,17.863 57.364,20.464 57.364,21.285L57.376,50.504C57.184,52.418 59.353,53.408 60.558,52.178C65.24,47.361 70.853,27.39 57.642,15.828C45.321,5.035 28.784,6.818 19.992,12.877C10.647,19.333 4.674,33.595 10.476,46.998C16.812,61.611 34.926,65.97 45.707,61.622C51.164,59.418 53.68,66.786 48.008,69.198C39.458,72.845 15.633,72.472 4.505,53.202C-3.013,40.185 -2.615,17.287 17.332,5.424C32.579,-3.657 52.695,-1.141 64.822,11.52C77.494,24.768 76.761,49.556 64.389,59.192C58.786,63.574 50.466,59.312 50.526,52.927L50.464,50.846C46.562,54.71 41.371,56.976 35.721,56.976C24.545,56.976 14.705,47.134 14.705,35.97C14.705,24.685 24.545,14.739 35.721,14.739L35.721,14.734ZM49.779,35.163C49.356,26.983 43.286,22.058 35.95,22.058L35.673,22.058C27.218,22.058 22.522,28.718 22.522,36.268C22.522,44.734 28.194,50.08 35.638,50.08C43.947,50.08 49.402,44.001 49.8,36.809L49.779,35.163Z" fill="#000000"/>
</svg>
