<svg width="172" height="200" viewBox="0 0 172 200" fill="none" xmlns="http://www.w3.org/2000/svg" xmlns:xlink="http://www.w3.org/1999/xlink">
<path d="M85.477,199.629C82.823,199.629 80.345,198.895 78.044,197.611L54.507,183.123C50.968,181.106 52.738,180.372 53.799,180.005C58.578,178.355 59.462,177.988 64.418,175.054C64.949,174.687 65.656,174.87 66.187,175.237L84.238,186.424C84.946,186.791 85.831,186.791 86.362,186.424L156.974,144.059C157.682,143.692 158.036,142.959 158.036,142.042L158.036,57.495C158.036,56.578 157.682,55.845 156.974,55.478L86.362,13.296C85.654,12.93 84.769,12.93 84.238,13.296L13.627,55.478C12.919,55.845 12.565,56.762 12.565,57.495L12.565,142.042C12.565,142.775 12.919,143.692 13.627,144.059L32.917,155.613C43.358,161.115 49.906,154.696 49.906,148.277L49.906,64.831C49.906,63.731 50.791,62.63 52.03,62.63L61.055,62.63C62.117,62.63 63.179,63.547 63.179,64.831L63.179,148.277C63.179,162.766 55.569,171.202 42.296,171.202C38.226,171.202 35.04,171.202 26.015,166.617L7.433,155.613C2.832,152.862 0,147.727 0,142.225L0,57.679C0,52.177 2.832,47.042 7.433,44.291L78.044,1.926C82.469,-0.642 88.486,-0.642 92.91,1.926L163.522,44.291C168.123,47.042 170.954,52.177 170.954,57.679L170.954,142.225C170.954,147.727 168.123,152.862 163.522,155.613L92.91,197.978C90.609,199.079 87.955,199.629 85.477,199.629ZM107.245,141.492C76.275,141.492 69.904,126.82 69.904,114.349C69.904,113.248 70.789,112.148 72.027,112.148L81.23,112.148C82.292,112.148 83.177,112.882 83.177,113.982C84.592,123.702 88.663,128.47 107.422,128.47C122.287,128.47 128.658,124.986 128.658,116.733C128.658,111.965 126.889,108.48 103.705,106.096C84.415,104.078 72.381,99.677 72.381,83.721C72.381,68.866 84.415,60.063 104.59,60.063C127.243,60.063 138.392,68.132 139.807,85.739C139.807,86.289 139.631,86.839 139.277,87.389C138.923,87.756 138.392,88.123 137.861,88.123L128.658,88.123C127.773,88.123 126.889,87.389 126.712,86.472C124.588,76.385 119.102,73.084 104.59,73.084C88.309,73.084 86.362,78.953 86.362,83.354C86.362,88.673 88.663,90.324 110.607,93.258C132.375,96.192 142.639,100.41 142.639,116.183C142.462,132.322 129.72,141.492 107.245,141.492Z" fill="#539E43"/>
</svg>
