<svg width="254" height="200" viewBox="0 0 254 200" fill="none" xmlns="http://www.w3.org/2000/svg" xmlns:xlink="http://www.w3.org/1999/xlink">
<path d="M217.947,114.897C209.093,114.95 201.425,117.189 194.995,120.523C192.621,115.575 190.247,111.252 189.851,108.023C189.406,104.273 188.862,101.981 189.406,97.502C189.95,93.022 192.423,86.668 192.423,86.147C192.373,85.679 191.879,83.387 186.784,83.335C181.689,83.283 177.286,84.377 176.792,85.783C176.297,87.189 175.308,90.418 174.665,93.752C173.774,98.647 164.475,115.991 159.182,125.106C157.45,121.564 155.966,118.439 155.669,115.939C155.224,112.189 154.68,109.897 155.224,105.418C155.768,100.939 158.242,94.585 158.242,94.064C158.192,93.595 157.698,91.304 152.603,91.252C147.508,91.2 143.106,92.293 142.611,93.7C142.116,95.106 141.572,98.439 140.484,101.668C139.445,104.897 127.078,133.856 123.863,141.408C122.23,145.262 120.796,148.335 119.757,150.418C118.718,152.502 119.707,150.575 119.609,150.783C118.718,152.554 118.223,153.543 118.223,153.543L118.223,153.596C117.531,154.898 116.789,156.147 116.442,156.147C116.195,156.147 115.7,152.658 116.541,147.867C118.371,137.814 122.823,122.138 122.774,121.565C122.774,121.304 123.615,118.543 119.905,117.138C116.294,115.731 115.008,118.075 114.711,118.075C114.414,118.075 114.167,118.908 114.167,118.908C114.167,118.908 118.173,101.253 106.499,101.253C99.178,101.253 89.087,109.638 84.091,117.294C80.925,119.117 74.198,122.971 67.075,127.086C64.354,128.649 61.534,130.315 58.863,131.826L58.32,131.2C44.172,115.314 18.004,104.064 19.093,82.71C19.488,74.95 22.061,54.481 69.351,29.689C108.083,9.377 139.099,14.95 144.49,27.345C152.157,45.054 127.919,77.97 87.654,82.71C72.319,84.533 64.256,78.283 62.228,75.939C60.101,73.491 59.804,73.387 59.013,73.856C57.726,74.585 58.518,76.772 59.013,78.075C60.2,81.356 65.146,87.189 73.556,90.106C80.926,92.658 98.932,94.064 120.697,85.21C145.084,75.262 164.129,47.658 158.539,24.585C152.85,1.095 115.85,-6.613 80.877,6.46C60.051,14.272 37.494,26.46 21.269,42.45C1.977,61.408 -1.09,77.97 0.196,84.845C4.698,109.377 36.802,125.366 49.663,137.189C49.02,137.553 48.426,137.918 47.882,138.231C41.452,141.564 16.966,155.054 10.832,169.324C3.906,185.47 11.92,197.085 17.262,198.647C33.784,203.491 50.702,194.793 59.853,180.47C68.954,166.147 67.867,147.554 63.662,139.064L63.513,138.752L68.559,135.627C71.824,133.595 75.039,131.72 77.858,130.105C76.276,134.637 75.138,140.001 74.545,147.814C73.852,156.981 77.414,168.855 82.113,173.543C84.191,175.574 86.664,175.626 88.197,175.626C93.639,175.626 96.112,170.886 98.833,165.209C102.196,158.282 105.164,150.262 105.164,150.262C105.164,150.262 101.454,171.98 111.595,171.98C115.305,171.98 119.015,166.928 120.697,164.324L120.697,164.376C120.697,164.376 120.796,164.22 120.994,163.855C121.201,163.532 121.399,163.202 121.587,162.866L121.587,162.762C123.071,160.054 126.385,153.856 131.332,143.595C137.713,130.366 143.847,113.804 143.847,113.804C143.847,113.804 144.441,117.866 146.271,124.533C147.359,128.492 149.733,132.814 151.563,137.033C150.079,139.22 149.189,140.471 149.189,140.471L149.238,140.523C148.052,142.19 146.716,143.961 145.331,145.731C140.285,152.085 134.251,159.326 133.459,161.409C132.519,163.856 132.717,165.679 134.547,167.138C135.883,168.18 138.257,168.388 140.78,168.18C145.331,167.867 148.497,166.669 150.08,165.94C152.553,165.002 155.373,163.596 158.093,161.513C163.04,157.659 166.058,152.19 165.761,144.899C165.612,140.888 164.376,136.93 162.842,133.18C163.287,132.503 163.733,131.825 164.178,131.096C171.993,119.065 178.028,105.836 178.028,105.836C178.028,105.836 178.622,109.899 180.452,116.565C181.392,119.951 183.272,123.649 184.954,127.295C177.633,133.597 173.032,140.889 171.449,145.68C168.531,154.534 170.806,158.545 175.11,159.482C177.039,159.899 179.809,158.962 181.886,158.024C184.459,157.139 187.575,155.628 190.444,153.389C195.391,149.534 200.139,144.17 199.893,136.93C199.744,133.597 198.903,130.316 197.766,127.191C203.997,124.482 212.061,122.92 222.301,124.222C244.313,126.93 248.667,141.409 247.825,147.451C246.985,153.493 242.385,156.826 240.851,157.868C239.317,158.857 238.823,159.222 238.971,159.951C239.169,161.045 239.861,160.993 241.197,160.785C243.027,160.472 252.771,155.837 253.167,144.692C253.761,130.367 240.851,114.742 217.947,114.897L217.947,114.897ZM48.179,175.158C40.907,183.543 30.668,186.72 26.315,184.012C21.615,181.147 23.445,168.804 32.399,159.897C37.84,154.481 44.914,149.481 49.564,146.408C50.603,145.731 52.186,144.742 54.065,143.543C54.362,143.336 54.56,143.231 54.56,143.231C54.906,143.022 55.302,142.762 55.698,142.502C59.012,155.21 55.846,166.356 48.179,175.158L48.179,175.158ZM101.355,137.085C98.833,143.595 93.49,160.314 90.275,159.377C87.504,158.595 85.823,145.939 89.73,133.439C91.709,127.137 95.914,119.637 98.387,116.72C102.394,112.032 106.747,110.47 107.835,112.397C109.122,114.897 102.938,133.022 101.355,137.085ZM145.232,159.168C144.144,159.742 143.155,160.158 142.709,159.846C142.363,159.638 143.154,158.856 143.154,158.856C143.154,158.856 148.645,152.658 150.821,149.794C152.058,148.128 153.542,146.201 155.125,144.013L155.125,144.638C155.125,152.137 148.299,157.137 145.232,159.168ZM179.067,151.043C178.275,150.418 178.375,148.491 181.045,142.45C182.085,140.054 184.459,136.043 188.564,132.241C189.059,133.804 189.356,135.314 189.306,136.72C189.257,146.095 182.926,149.585 179.067,151.043Z" fill="#CF649A"/>
</svg>
