<svg width="60" height="56" viewBox="0 0 60 56" fill="none" xmlns="http://www.w3.org/2000/svg" xmlns:xlink="http://www.w3.org/1999/xlink">
<path d="M54.961,0L5.039,0C3.633,0 2.441,0.71 1.465,2.129C0.488,3.548 0,5.185 0,7.041L0,48.959C0,50.815 0.488,52.452 1.465,53.871C2.441,55.29 3.633,56 5.039,56L54.961,56C56.367,56 57.559,55.29 58.535,53.871C59.512,52.452 60,50.815 60,48.959L60,7.041C60,5.185 59.512,3.548 58.535,2.129C57.559,0.71 56.367,0 54.961,0ZM50.273,7.041L30,23.743L9.727,7.041L50.273,7.041ZM5.039,48.959L5.039,11.298L28.711,31.111C28.867,31.329 29.297,31.439 30,31.439C30.703,31.439 31.133,31.329 31.289,31.111L54.961,11.298L54.961,48.959L5.039,48.959Z" fill="#FFFFFF"/>
</svg>
