<svg width="78" height="78" viewBox="0 0 78 78" fill="none" xmlns="http://www.w3.org/2000/svg" xmlns:xlink="http://www.w3.org/1999/xlink">
<path d="M38.4,0C17.192,0 0,17.192 0,38.4C0,59.608 17.192,76.8 38.4,76.8C59.608,76.8 76.8,59.608 76.8,38.4C76.8,17.192 59.608,0 38.4,0ZM29,54.316L21.224,54.316L21.224,29.292L29,29.292L29,54.316ZM25.064,26.22C22.608,26.22 21.02,24.48 21.02,22.328C21.02,20.132 22.656,18.444 25.164,18.444C27.672,18.444 29.208,20.132 29.256,22.328C29.256,24.48 27.672,26.22 25.064,26.22ZM57.4,54.316L49.624,54.316L49.624,40.448C49.624,37.22 48.496,35.028 45.684,35.028C43.536,35.028 42.26,36.512 41.696,37.94C41.488,38.448 41.436,39.168 41.436,39.884L41.436,54.312L33.656,54.312L33.656,37.272C33.656,34.148 33.556,31.536 33.452,29.288L40.208,29.288L40.564,32.764L40.72,32.764C41.744,31.132 44.252,28.724 48.448,28.724C53.564,28.724 57.4,32.152 57.4,39.52L57.4,54.316L57.4,54.316Z" fill="#000000"/>
</svg>
