<svg width="60" height="60" viewBox="0 0 60 60" fill="none" xmlns="http://www.w3.org/2000/svg" xmlns:xlink="http://www.w3.org/1999/xlink">
<path d="M30,0C21.845,0 20.828,0.039 17.637,0.174C14.432,0.332 12.264,0.829 10.351,1.571C8.349,2.327 6.536,3.51 5.039,5.039C3.506,6.533 2.322,8.347 1.571,10.351C0.829,12.264 0.332,14.432 0.174,17.637C0.03,20.83 0,21.845 0,30C0,38.155 0.039,39.172 0.174,42.363C0.332,45.559 0.829,47.736 1.571,49.649C2.327,51.651 3.51,53.464 5.039,54.961C6.533,56.494 8.347,57.678 10.351,58.429C12.264,59.162 14.441,59.668 17.637,59.826C20.83,59.97 21.845,60 30,60C38.155,60 39.172,59.961 42.363,59.826C45.559,59.668 47.736,59.16 49.649,58.429C51.651,57.673 53.464,56.49 54.961,54.961C56.496,53.469 57.68,51.654 58.429,49.649C59.162,47.736 59.668,45.559 59.826,42.363C59.97,39.17 60,38.155 60,30C60,21.845 59.961,20.828 59.826,17.637C59.668,14.441 59.16,12.253 58.429,10.351C57.673,8.349 56.49,6.536 54.961,5.039C53.469,3.504 51.654,2.32 49.649,1.571C47.736,0.829 45.559,0.332 42.363,0.174C39.17,0.03 38.155,0 30,0ZM30,5.401C38.009,5.401 38.965,5.44 42.131,5.575C45.051,5.712 46.641,6.2 47.697,6.612C49.002,7.094 50.183,7.861 51.155,8.857C52.149,9.824 52.913,11.003 53.39,12.305C53.802,13.361 54.29,14.951 54.427,17.871C54.562,21.036 54.601,21.995 54.601,30.002C54.601,38.009 54.562,38.967 54.416,42.133C54.258,45.053 53.77,46.643 53.36,47.698C52.792,49.107 52.158,50.091 51.111,51.156C50.137,52.146 48.956,52.909 47.653,53.392C46.611,53.804 44.998,54.292 42.067,54.429C38.885,54.564 37.947,54.603 29.917,54.603C21.888,54.603 20.952,54.564 17.766,54.417C14.846,54.26 13.235,53.772 12.18,53.362C10.754,52.793 9.777,52.16 8.731,51.113C7.675,50.058 7.004,49.052 6.486,47.655C6.066,46.613 5.586,45 5.431,42.069C5.324,38.924 5.273,37.949 5.273,29.957C5.273,21.968 5.324,20.991 5.431,17.807C5.586,14.876 6.066,13.267 6.486,12.221C7.004,10.794 7.677,9.819 8.731,8.763C9.776,7.718 10.754,7.043 12.18,6.515C13.235,6.104 14.807,5.616 17.738,5.47C20.92,5.356 21.858,5.314 29.876,5.314L30,5.401ZM30,14.602C27.977,14.602 25.974,15 24.105,15.773C22.236,16.547 20.538,17.681 19.108,19.112C17.678,20.542 16.543,22.24 15.77,24.109C14.996,25.978 14.598,27.981 14.599,30.004C14.598,32.026 14.996,34.03 15.77,35.898C16.543,37.767 17.678,39.465 19.108,40.896C20.538,42.326 22.236,43.46 24.105,44.234C25.974,45.008 27.977,45.406 30,45.405C32.023,45.406 34.026,45.008 35.895,44.234C37.764,43.46 39.462,42.326 40.892,40.896C42.322,39.465 43.457,37.767 44.23,35.898C45.004,34.03 45.402,32.026 45.401,30.004C45.402,27.981 45.004,25.978 44.23,24.109C43.457,22.24 42.322,20.542 40.892,19.112C39.462,17.681 37.764,16.547 35.895,15.773C34.026,15 32.023,14.602 30,14.602L30,14.602ZM30,40.004C24.472,40.004 19.999,35.532 19.999,30.004C19.999,24.476 24.472,20.003 30,20.003C35.528,20.003 40.001,24.476 40.001,30.004C40.001,35.532 35.528,40.004 30,40.004ZM49.622,13.987C49.621,14.943 49.241,15.859 48.565,16.535C47.889,17.21 46.972,17.59 46.016,17.59C45.544,17.59 45.076,17.497 44.639,17.316C44.203,17.135 43.806,16.87 43.472,16.536C43.138,16.202 42.873,15.805 42.692,15.368C42.511,14.932 42.418,14.464 42.418,13.991C42.418,13.519 42.511,13.051 42.692,12.614C42.873,12.177 43.138,11.781 43.472,11.447C43.806,11.112 44.203,10.847 44.639,10.666C45.076,10.486 45.544,10.393 46.016,10.393C47.999,10.393 49.622,12.005 49.622,13.987L49.622,13.987Z" fill="#FFFFFF" fill-opacity="0.9"/>
</svg>
