<svg width="70" height="70" viewBox="0 0 70 70" fill="none" xmlns="http://www.w3.org/2000/svg" xmlns:xlink="http://www.w3.org/1999/xlink">
<path d="M34.969,0C15.648,-0.008 0,15.633 0,34.938C0,50.203 9.789,63.18 23.422,67.945C25.258,68.406 24.977,67.102 24.977,66.211L24.977,60.156C14.375,61.398 13.945,54.383 13.234,53.211C11.797,50.758 8.398,50.133 9.414,48.961C11.828,47.719 14.289,49.273 17.141,53.484C19.203,56.539 23.227,56.023 25.266,55.516C25.711,53.68 26.664,52.039 27.977,50.766C16.992,48.797 12.414,42.094 12.414,34.125C12.414,30.258 13.688,26.703 16.188,23.836C14.594,19.109 16.336,15.063 16.57,14.461C21.109,14.055 25.828,17.711 26.195,18C28.773,17.305 31.719,16.938 35.016,16.938C38.328,16.938 41.281,17.32 43.883,18.023C44.766,17.352 49.141,14.211 53.359,14.594C53.586,15.195 55.289,19.148 53.789,23.813C56.32,26.688 57.609,30.273 57.609,34.148C57.609,42.133 53,48.844 41.984,50.781C42.928,51.709 43.677,52.816 44.188,54.036C44.699,55.257 44.962,56.567 44.961,57.891L44.961,66.68C45.023,67.383 44.961,68.078 46.133,68.078C59.969,63.414 69.93,50.344 69.93,34.945C69.93,15.633 54.273,0 34.969,0L34.969,0Z" fill="#000000"/>
</svg>
