<svg width="206" height="200" viewBox="0 0 206 200" fill="none" xmlns="http://www.w3.org/2000/svg" xmlns:xlink="http://www.w3.org/1999/xlink">
<path d="M189.711,154.686C178.505,154.41 169.82,155.519 162.535,158.567C160.434,159.398 157.072,159.399 156.792,162.031C157.913,163.14 158.053,164.941 159.033,166.465C160.715,169.236 163.656,172.978 166.318,174.919C169.259,177.136 172.201,179.352 175.282,181.293C180.746,184.619 186.91,186.558 192.232,189.884C195.315,191.823 198.395,194.319 201.478,196.397C203.018,197.505 203.998,199.307 205.96,200L205.96,199.584C204.98,198.337 204.7,196.536 203.72,195.15C202.32,193.764 200.918,192.517 199.517,191.131C195.454,185.727 190.412,181.016 184.948,177.136C180.466,174.087 170.66,169.93 168.839,164.802C168.839,164.802 168.698,164.664 168.559,164.526C171.641,164.249 175.282,163.14 178.225,162.308C182.988,161.061 187.33,161.338 192.232,160.091C194.473,159.537 196.715,158.844 198.956,158.151L198.956,156.904C196.436,154.409 194.614,151.084 191.952,148.728C184.808,142.63 176.963,136.672 168.839,131.684C164.496,128.913 158.893,127.111 154.271,124.756C152.59,123.923 149.788,123.508 148.808,122.122C146.286,119.074 144.885,115.056 143.064,111.452C139.003,103.83 135.079,95.378 131.577,87.341C129.057,81.936 127.516,76.532 124.434,71.544C110.006,47.986 94.317,33.714 70.223,19.717C65.04,16.808 58.877,15.56 52.293,14.036C48.792,13.897 45.289,13.621 41.787,13.482C39.546,12.511 37.304,9.879 35.343,8.631C27.36,3.642 6.767,-7.165 0.884,7.108C-2.899,16.115 6.487,24.983 9.708,29.556C12.091,32.743 15.172,36.346 16.853,39.949C17.834,42.303 18.113,44.799 19.094,47.293C21.336,53.389 23.436,60.18 26.378,65.862C27.92,68.772 29.6,71.821 31.561,74.453C32.682,75.977 34.642,76.671 35.063,79.165C33.103,81.936 32.962,86.094 31.841,89.558C26.798,105.216 28.76,124.617 35.903,136.118C38.144,139.581 43.468,147.204 50.612,144.294C56.915,141.8 55.515,133.901 57.335,126.972C57.756,125.308 57.476,124.201 58.316,123.093C58.317,123.231 58.316,123.37 58.316,123.37C60.278,127.25 62.238,130.991 64.059,134.871C68.402,141.661 75.966,148.728 82.269,153.44C85.633,155.933 88.294,160.23 92.496,161.754L92.496,161.338L92.216,161.338C91.375,160.091 90.114,159.537 88.994,158.567C86.473,156.072 83.67,153.024 81.71,150.252C75.827,142.492 70.643,133.901 66.021,125.032C63.78,120.737 61.818,116.025 59.997,111.729C59.156,110.066 59.156,107.572 57.756,106.741C55.654,109.789 52.573,112.422 51.032,116.164C48.372,122.122 48.091,129.467 47.11,137.088C46.55,137.227 46.83,137.088 46.549,137.365C42.067,136.256 40.526,131.684 38.845,127.803C34.642,117.965 33.942,102.168 37.585,90.805C38.565,87.895 42.768,78.749 41.087,75.978C40.246,73.345 37.444,71.821 35.903,69.742C34.083,67.109 32.121,63.784 30.861,60.873C27.499,53.114 25.818,44.522 22.176,36.761C20.495,33.158 17.553,29.417 15.172,26.092C12.511,22.35 9.569,19.717 7.468,15.283C6.768,13.759 5.786,11.265 6.907,9.602C7.187,8.493 7.747,8.078 8.868,7.8C10.689,6.276 15.872,8.216 17.693,9.047C22.876,11.125 27.218,13.066 31.561,15.976C33.522,17.361 35.623,19.995 38.144,20.687L41.087,20.687C45.569,21.657 50.612,20.965 54.814,22.211C62.239,24.566 68.962,28.032 74.986,31.773C93.337,43.274 108.464,59.627 118.691,79.165C120.372,82.351 121.072,85.263 122.613,88.588C125.555,95.378 129.197,102.307 132.138,108.958C135.079,115.47 137.881,122.122 142.083,127.527C144.185,130.436 152.589,131.961 156.372,133.485C159.173,134.732 163.516,135.841 166.037,137.365C170.8,140.274 175.563,143.601 180.045,146.788C182.287,148.45 189.29,151.915 189.711,154.686L189.711,154.686Z" fill="#00546B"/>
</svg>
