<svg width="60" height="60" viewBox="0 0 60 60" fill="none" xmlns="http://www.w3.org/2000/svg" xmlns:xlink="http://www.w3.org/1999/xlink">
<path d="M57.6,0L2.4,0C1.072,0 0,1.073 0,2.4L0,57.6C0,58.928 1.072,60 2.4,60L57.6,60C58.928,60 60,58.928 60,57.6L60,2.4C60,1.073 58.928,0 57.6,0ZM55.2,55.2L41.393,55.2L41.393,36.765L49.193,36.765L50.363,27.713L41.393,27.713L41.393,21.93C41.393,19.305 42.12,17.52 45.878,17.52L50.67,17.52L50.67,9.42C49.837,9.307 46.995,9.06 43.68,9.06C36.765,9.06 32.033,13.283 32.033,21.03L32.033,27.705L24.218,27.705L24.218,36.757L32.04,36.757L32.04,55.2L4.8,55.2L4.8,4.8L55.2,4.8L55.2,55.2Z" fill="#FFFFFF" fill-opacity="0.9"/>
</svg>
