<svg width="60" height="62" viewBox="0 0 60 62" fill="none" xmlns="http://www.w3.org/2000/svg" xmlns:xlink="http://www.w3.org/1999/xlink">
<path d="M55.177,0.52L4.822,0.52C2.16,0.52 0,2.68 0,5.342L0,55.697C0,58.36 2.16,60.52 4.822,60.52L55.177,60.52C57.84,60.52 60,58.36 60,55.697L60,5.342C60,2.68 57.84,0.52 55.177,0.52ZM55.177,55.72C21.593,55.712 4.8,55.705 4.8,55.697C4.808,22.112 4.815,5.32 4.822,5.32C38.408,5.327 55.2,5.335 55.2,5.342C55.192,38.927 55.185,55.72 55.177,55.72ZM8.895,23.012L17.798,23.012L17.798,51.647L8.895,51.647L8.895,23.012ZM13.35,19.097C16.192,19.097 18.51,16.787 18.51,13.937C18.51,13.259 18.377,12.588 18.117,11.962C17.858,11.336 17.478,10.768 16.999,10.288C16.52,9.809 15.951,9.429 15.325,9.17C14.699,8.91 14.028,8.777 13.35,8.777C12.672,8.777 12.001,8.91 11.375,9.17C10.749,9.429 10.18,9.809 9.701,10.288C9.222,10.768 8.842,11.336 8.583,11.962C8.323,12.588 8.19,13.259 8.19,13.937C8.183,16.787 10.492,19.097 13.35,19.097ZM32.272,37.48C32.272,33.745 32.985,30.13 37.613,30.13C42.173,30.13 42.24,34.397 42.24,37.72L42.24,51.647L51.135,51.647L51.135,35.942C51.135,28.232 49.47,22.3 40.463,22.3C36.135,22.3 33.233,24.677 32.04,26.927L31.92,26.927L31.92,23.012L23.378,23.012L23.378,51.647L32.272,51.647L32.272,37.48Z" fill="#FFFFFF" fill-opacity="0.9"/>
</svg>
